<?xml version="1.0" encoding="utf-8"?>
<!-- Generator: Adobe Illustrator 26.2.0, SVG Export Plug-In . SVG Version: 6.00 Build 0)  -->
<svg version="1.1" id="Calque_1" xmlns="http://www.w3.org/2000/svg" xmlns:xlink="http://www.w3.org/1999/xlink" x="0px" y="0px"
	 viewBox="0 0 12 12" style="enable-background:new 0 0 12 12;" xml:space="preserve">
<style type="text/css">
	.st0{fill:#0EBDAB;}
	.st1{fill:#BCBCBC;}
</style>
<path class="st0" d="M3.6,3.7c0-0.3-0.2-0.5-0.5-0.5H1.4c-0.3,0-0.5,0.2-0.5,0.5L0.5,5.9c0,0.3,0.2,0.6,0.5,0.6h0.2l0.4,4.2
	c0,0.2,0.1,0.3,0.3,0.3h0.5c0.2,0,0.3-0.1,0.3-0.3l0.4-4.2h0.2c0.3,0,0.5-0.3,0.5-0.6L3.6,3.7z"/>
<path class="st0" d="M3.1,1.9c0,0.5-0.4,0.9-0.9,0.9c-0.5,0-0.9-0.4-0.9-0.9c0-0.5,0.4-0.9,0.9-0.9C2.7,1.1,3.1,1.5,3.1,1.9z"/>
<path class="st1" d="M7.5,3.7c0-0.3-0.2-0.5-0.5-0.5H5.2c-0.3,0-0.5,0.2-0.5,0.5L4.4,5.9c0,0.3,0.2,0.6,0.5,0.6h0.2l0.4,4.2
	c0,0.2,0.1,0.3,0.3,0.3h0.5c0.2,0,0.3-0.1,0.3-0.3l0.4-4.2h0.2c0.3,0,0.5-0.3,0.5-0.6L7.5,3.7z"/>
<path class="st1" d="M6.9,1.9c0,0.5-0.4,0.9-0.9,0.9c-0.5,0-0.9-0.4-0.9-0.9c0-0.5,0.4-0.9,0.9-0.9C6.6,1.1,6.9,1.5,6.9,1.9z"/>
<path class="st1" d="M11.3,3.7c0-0.3-0.2-0.5-0.5-0.5H9c-0.3,0-0.5,0.2-0.5,0.5L8.2,5.9c0,0.3,0.2,0.6,0.5,0.6h0.2l0.4,4.2
	c0,0.2,0.1,0.3,0.3,0.3h0.5c0.2,0,0.3-0.1,0.3-0.3l0.4-4.2H11c0.3,0,0.5-0.3,0.5-0.6L11.3,3.7z"/>
<path class="st1" d="M10.7,1.9c0,0.5-0.4,0.9-0.9,0.9C9.4,2.8,9,2.4,9,1.9c0-0.5,0.4-0.9,0.9-0.9C10.4,1.1,10.7,1.5,10.7,1.9z"/>
</svg>
